<svg width="55" height="55" viewBox="0 0 55 55" fill="none" xmlns="http://www.w3.org/2000/svg">
<path d="M15.9491 0C7.15637 0 0 7.16064 0 15.9534V38.7384C0 47.5311 7.16064 54.6875 15.9534 54.6875H38.7384C47.5311 54.6875 54.6875 47.5269 54.6875 38.7341V15.9491C54.6875 7.15637 47.5269 0 38.7341 0H15.9491ZM43.75 8.75C44.9591 8.75 45.9375 9.72839 45.9375 10.9375C45.9375 12.1466 44.9591 13.125 43.75 13.125C42.5409 13.125 41.5625 12.1466 41.5625 10.9375C41.5625 9.72839 42.5409 8.75 43.75 8.75ZM27.3438 13.125C35.188 13.125 41.5625 19.4995 41.5625 27.3438C41.5625 35.188 35.1837 41.5625 27.3438 41.5625C19.4995 41.5625 13.125 35.1837 13.125 27.3438C13.125 19.5038 19.4995 13.125 27.3438 13.125ZM27.3438 17.5C21.9049 17.5 17.5 21.9049 17.5 27.3438C17.5 32.7826 21.9049 37.1875 27.3438 37.1875C32.7826 37.1875 37.1875 32.7826 37.1875 27.3438C37.1875 21.9049 32.7826 17.5 27.3438 17.5Z" fill="#CCCCCC"/>
</svg>
