<svg width="56" height="56" viewBox="0 0 56 56" fill="none" xmlns="http://www.w3.org/2000/svg">
<path fill-rule="evenodd" clip-rule="evenodd" d="M10.2864 0.248163C7.44124 0.761404 5.56609 1.72285 3.57628 3.6884C1.73773 5.50489 0.706419 7.62996 0.22678 10.591C-0.0755932 12.4575 -0.0755932 43.5335 0.22678 45.4C0.732696 48.5234 1.7793 50.5839 3.86257 52.5578C5.18253 53.8087 6.39294 54.5615 8.01827 55.1426C10.4571 56.0145 10.1196 56 28 56C45.8804 56 45.5428 56.0145 47.9817 55.1426C49.607 54.5615 50.8174 53.8087 52.1374 52.5578C54.2046 50.599 55.2736 48.495 55.7737 45.4002C56.0757 43.5318 56.0753 12.455 55.7732 10.591C55.2715 7.49334 54.2336 5.43449 52.1879 3.47797C50.6607 2.01742 49.429 1.28276 47.4464 0.649911C45.3919 -0.00583891 45.3081 -0.00871859 27.8693 0.00227382C12.7881 0.0116959 11.4977 0.0297546 10.2864 0.248163ZM22.0723 29.1733C25.5411 36.6946 28.3822 42.8924 28.3858 42.9465C28.3893 43.0005 26.8395 43.0446 24.9419 43.0446H21.4916L15.1831 29.3368C11.7133 21.7975 8.84983 15.5839 8.81977 15.5288C8.78957 15.4736 10.34 15.4441 12.2651 15.4634L15.7652 15.4982L22.0723 29.1733ZM35.128 29.2047C38.6134 36.7434 41.4649 42.9423 41.4649 42.9801C41.4649 43.0179 39.8987 43.0332 37.9844 43.014L34.504 42.9792L30.722 34.8003C24.6757 21.7249 23.6835 19.5824 23.4494 19.0969L23.2284 18.6389L21.4411 18.6025L19.6538 18.5662L20.5731 16.9975L21.4924 15.4287L25.1418 15.4635L28.791 15.4982L35.128 29.2047ZM43.0293 15.8993C43.9567 16.3159 44.9965 17.3516 45.4134 18.2736C45.6387 18.772 45.6978 19.1555 45.7016 20.1438C45.7056 21.2319 45.6625 21.4767 45.3555 22.1067C43.5853 25.7393 38.4855 25.7089 36.8017 22.0557C36.489 21.3773 36.4331 21.0876 36.4331 20.1438C36.4331 19.195 36.4884 18.9115 36.8089 18.2157C37.3899 16.9544 38.6501 15.9058 39.9922 15.5669C40.8099 15.3605 42.1583 15.508 43.0293 15.8993Z" fill="#CCCCCC"/>
</svg>
