<svg width="56" height="56" viewBox="0 0 56 56" fill="none" xmlns="http://www.w3.org/2000/svg">
<path d="M27.6013 0C42.8467 0 55.2026 12.356 55.2026 27.6013C55.2026 42.8467 42.8467 55.2026 27.6013 55.2026C12.356 55.2026 0 42.8467 0 27.6013C0 12.356 12.356 0 27.6013 0ZM37.1228 38.8513C37.6282 37.2949 40.0085 21.7712 40.3015 18.7134C40.3894 17.7869 40.0964 17.168 39.5251 16.8933C38.8293 16.5601 37.804 16.7285 36.6138 17.157C34.9768 17.7466 14.0845 26.6199 12.876 27.1326C11.7297 27.6196 10.6494 28.147 10.6494 28.916C10.6494 29.458 10.968 29.7583 11.8542 30.0769C12.7734 30.4028 15.0879 31.106 16.4539 31.4832C17.7686 31.8457 19.27 31.5308 20.1086 31.0071C20.9985 30.4541 31.2744 23.5803 32.0142 22.9761C32.7502 22.3755 33.3362 23.1445 32.7356 23.7488C32.1313 24.353 25.0781 31.1975 24.1479 32.146C23.02 33.2959 23.822 34.4897 24.5801 34.9658C25.4443 35.5115 31.6663 39.6863 32.6038 40.3564C33.5413 41.0229 34.4897 41.3269 35.3613 41.3269C36.2292 41.3269 36.6907 40.1807 37.1228 38.8513Z" fill="#CCCCCC"/>
</svg>
