<svg width="55" height="55" viewBox="0 0 55 55" fill="none" xmlns="http://www.w3.org/2000/svg">
<path d="M27.5 0C12.3122 0 0 12.3122 0 27.5C0 42.6878 12.3122 55 27.5 55C42.6878 55 55 42.6878 55 27.5C55 12.3122 42.6878 0 27.5 0ZM38.4198 39.1346C37.1308 35.1104 33.9164 31.9993 29.665 31.5738V39.1346H29.0122C17.4478 39.1346 10.8537 31.1937 10.5769 17.9808H16.3694C16.5595 27.6777 20.8316 31.7886 24.2112 32.6356V17.9808H29.6691V26.3431C33.0074 25.9837 36.5152 22.1744 37.7009 17.9808H43.1547C42.2457 23.1494 38.4405 26.9588 35.7343 28.5246C38.4405 29.7972 42.7746 33.119 44.4231 39.1346H38.4198Z" fill="#CCCCCC"/>
</svg>
