<svg width="56" height="56" viewBox="0 0 56 56" fill="none" xmlns="http://www.w3.org/2000/svg">
<path d="M27.8571 0C12.4731 0 0 11.9517 0 26.6964C0 31.9287 1.57785 36.8073 4.29374 40.9288L2.32143 55.7143L20.1946 52.3636C22.6294 53.0256 25.2002 53.3929 27.8571 53.3929C43.2411 53.3929 55.7143 41.4411 55.7143 26.6964C55.7143 11.9517 43.2411 0 27.8571 0ZM27.8571 3.98089C34.5902 3.91288 41.3096 6.89174 45.7757 12.0061C50.287 17.0888 52.2639 24.3161 50.9717 31.0355C49.7339 37.7867 45.1772 43.7263 39.1696 46.9817C33.3025 50.1283 26.0979 50.7268 19.782 48.5097L8.42878 51.0306L6.65597 51.4251L6.99149 49.6613V49.6568L8.55573 40.1172C7.55824 38.5121 6.71038 36.8345 6.06654 35.0844C5.3547 33.0577 4.88316 30.9584 4.7154 28.841C4.63379 27.7801 4.61565 26.7146 4.69727 25.6581C4.71994 24.5972 4.9013 23.5453 5.07812 22.5024C5.53606 20.4395 6.17083 18.3901 7.19099 16.5356C8.17034 14.6631 9.3764 12.8903 10.8545 11.3804C11.5482 10.5734 12.3825 9.91595 13.1623 9.20864C14.0193 8.58747 14.8399 7.9119 15.7694 7.40409C19.374 5.15974 23.6269 4.0625 27.8571 3.98089ZM27.8526 6.96429C24.1483 6.99149 20.4077 7.88923 17.2112 9.8162C16.386 10.2469 15.6651 10.8409 14.8989 11.3714C14.2097 11.9925 13.4525 12.5548 12.8449 13.2621C11.5301 14.5905 10.4736 16.1457 9.6031 17.7825C7.87563 21.0878 7.20912 24.8919 7.58092 28.5781C8.00258 32.2552 9.6303 35.769 12.124 38.4079L12.6636 39.0698L12.4505 39.8315L10.2515 47.6437L19.6233 44.6014H19.6279L20.1357 44.4381L20.6752 44.6512C26.0345 46.7641 32.2914 46.3787 37.4104 43.7263C42.5157 41.0421 46.4376 36.0774 47.553 30.3826C48.7183 24.706 47.1404 18.5442 43.3182 14.1145C39.5323 9.66204 33.7514 6.98242 27.8526 6.96429ZM19.0294 15.3795C19.6823 15.3795 21.5458 15.3795 21.5458 15.3795L24.0622 21.6727C23.1689 23.0783 22.2485 23.8581 21.582 24.6244C21.9538 25.5312 23.4773 27.7982 25.2863 29.3851C27.6168 31.43 29.6345 32.3821 31.0763 32.6632C31.829 32.101 33.7333 29.8294 34.1413 29.231L40.4346 31.7473C40.4346 33.0078 40.2713 33.6698 39.759 35.0753C39.2557 36.4764 36.8255 37.755 35.6512 37.9272C34.6038 38.0814 33.2799 38.1449 31.8199 37.6915C30.9403 37.4149 29.8068 37.0476 28.3559 36.4265C22.2531 33.8194 18.2676 27.7574 17.9639 27.3539C17.6646 26.9549 15.4837 24.0939 15.4837 21.1422C15.4837 18.1906 17.0525 16.7306 17.6147 16.1276C18.1679 15.5246 18.6213 15.3749 19.0294 15.3795Z" fill="#CCCCCC"/>
</svg>
