<svg width="39" height="42" viewBox="0 0 39 42" fill="none" xmlns="http://www.w3.org/2000/svg">
<path fill-rule="evenodd" clip-rule="evenodd" d="M25.6566 5.44464C26.422 5.80566 27.0718 6.27258 27.6447 6.86466C28.2223 7.4471 28.7759 7.91884 29.0645 8.96821C29.3679 10.0128 29.469 11.375 29.4064 13.1127H36.5595C36.314 14.0225 35.8856 14.7157 35.255 15.2692C34.6339 15.8084 33.8639 16.1742 32.8145 16.3475C31.7747 16.516 30.1285 16.4967 29.0645 16.232C28.0055 15.9431 27.1729 15.4136 26.5135 14.6435L23.1632 17.5941C24.5494 18.9902 25.5458 20.1647 26.2246 21.2284C26.9128 22.2682 27.428 22.7929 27.192 23.8423C26.9515 24.8723 26.2438 25.7677 24.8094 27.4188C23.3846 29.0795 21.3966 31.1107 18.7345 33.6619C22.1137 35.1928 24.9778 36.3866 27.4762 37.3541C29.9695 38.3024 31.9142 39.1686 33.6086 39.342C35.3223 39.4817 36.7326 38.4468 37.6377 38.3167C38.5475 38.1866 38.9951 38.2203 39 38.6006C38.9952 38.9811 38.7449 40.2182 37.6377 40.5311C36.5354 40.8246 36.2513 41.5468 32.4438 40.3577C28.6072 39.1399 20.4241 35.395 14.9511 33.3587C9.5021 31.3177 4.61145 29.6281 0 28.2129L1.13602 27.7027C1.9542 27.9339 3.44174 28.3624 5.6175 29.0074C7.81251 29.6475 10.6333 30.4994 14.1904 31.5633C14.9896 30.4079 15.702 29.5415 16.3471 28.8918C17.0065 28.2421 17.5505 27.8522 18.0511 27.7027C19.4469 26.1431 20.2941 25.0263 20.6649 24.2418C21.0306 23.4667 20.4289 23.414 20.2124 23.1008C20.0149 22.7929 20.0584 22.9614 19.4132 22.3644C18.7635 21.7193 17.0738 20.2658 16.3471 19.4139C15.6443 18.5617 15.1243 18.1575 15.158 17.368C15.2013 16.5689 15.6682 15.6976 16.5781 14.7012H8.79931L8.28906 16.8577L7.72105 14.8697L4.08677 14.475L7.43692 13.9647L8.39978 11.919L8.79931 13.7915L17.714 13.7337C19.3553 11.7697 20.8042 10.1235 22.1377 8.73715C23.4711 7.3412 24.6313 6.26296 25.6566 5.44464Z" fill="white"/>
<path fill-rule="evenodd" clip-rule="evenodd" d="M30.96 0C28.9699 0 27.3546 1.61524 27.3546 3.6054C27.3546 5.59556 28.9699 7.2108 30.96 7.2108C32.9502 7.2108 34.5654 5.59556 34.5654 3.6054C34.5654 1.61524 32.9501 0 30.96 0Z" fill="white"/>
</svg>
