<svg width="41" height="42" viewBox="0 0 41 42" fill="none" xmlns="http://www.w3.org/2000/svg">
<path fill-rule="evenodd" clip-rule="evenodd" d="M26.6735 5.44464C27.4413 5.80566 28.0931 6.27258 28.6677 6.86466C29.2472 7.4471 29.8025 7.91884 30.0921 8.96821C30.3964 10.0128 30.4978 11.375 30.435 13.1127H37.6105C37.3642 14.0225 36.9344 14.7157 36.3019 15.2692C35.6788 15.8084 34.9064 16.1742 33.8537 16.3475C32.8107 16.516 31.1593 16.4967 30.0921 16.232C29.0298 15.9431 28.1945 15.4136 27.533 14.6435L24.1722 17.5941C25.5628 18.9902 26.5623 20.1647 27.2433 21.2284C27.9336 22.2682 28.4504 22.7929 28.2137 23.8423C27.9724 24.8723 27.2625 25.7677 25.8236 27.4188C24.3944 29.0795 22.4001 31.1107 19.7297 33.6619C23.1195 35.1928 25.9925 36.3866 28.4987 37.3541C30.9999 38.3024 32.9506 39.1686 34.6503 39.342C36.3693 39.4817 37.7842 38.4468 38.6921 38.3167C39.6047 38.1866 40.0536 38.2203 40.0586 38.6006C40.0538 38.9811 39.8027 40.2182 38.6921 40.5311C37.5863 40.8246 37.3013 41.5468 33.4819 40.3577C29.6333 39.1399 21.4246 35.395 15.9345 33.3587C10.4684 31.3177 5.56251 29.6281 0.936638 28.2129L2.07621 27.7027C2.89695 27.9339 4.38914 28.3624 6.5717 29.0074C8.77358 29.6475 11.6032 30.4994 15.1714 31.5633C15.9731 30.4079 16.6878 29.5415 17.3348 28.8918C17.9964 28.2421 18.542 27.8522 19.0442 27.7027C20.4444 26.1431 21.2942 25.0263 21.6662 24.2418C22.033 23.4667 21.4294 23.414 21.2123 23.1008C21.0142 22.7929 21.0577 22.9614 20.4106 22.3644C19.7588 21.7193 18.0638 20.2658 17.3348 19.4139C16.6298 18.5617 16.1082 18.1575 16.142 17.368C16.1855 16.5689 16.6539 15.6976 17.5666 14.7012H9.76346L9.25162 16.8577L8.68184 14.8697L5.03619 14.475L8.39681 13.9647L9.36268 11.919L9.76346 13.7915L18.706 13.7337C20.3525 11.7697 21.8059 10.1235 23.1436 8.73715C24.4811 7.3412 25.645 6.26296 26.6735 5.44464Z" fill="#006CD1"/>
<path fill-rule="evenodd" clip-rule="evenodd" d="M31.9937 0C29.9973 0 28.377 1.61524 28.377 3.6054C28.377 5.59556 29.9973 7.2108 31.9937 7.2108C33.9901 7.2108 35.6104 5.59556 35.6104 3.6054C35.6104 1.61524 33.9899 0 31.9937 0Z" fill="#006CD1"/>
</svg>
