<svg width="84" height="54" viewBox="0 0 84 54" fill="none" xmlns="http://www.w3.org/2000/svg">
<path d="M4.01465 50.7077C4.01465 50.7077 4.07602 52.5795 6.82999 53.1011C9.58396 53.6228 19.9401 49.3652 26.6985 46.6112C33.4568 43.8573 52.3971 35.4649 52.8574 35.2041C53.3177 34.9433 52.8574 34.506 52.8574 34.506C52.8574 34.506 47.0656 37.237 43.0766 38.3186C39.0875 39.4003 20.201 47.5318 13.7801 50.0249C7.35931 52.5104 4.01465 50.7077 4.01465 50.7077Z" fill="url(#paint0_linear_235_73)"/>
<path d="M0.00393504 48.0458C0.00393504 48.0458 -0.0344212 49.9176 2.68887 50.5927C5.41215 51.2677 15.9831 47.5779 22.8796 45.1998C29.776 42.8217 49.1535 35.4727 49.6215 35.2425C50.0971 35.0047 49.6598 34.5444 49.6598 34.5444C49.6598 34.5444 43.73 36.9532 39.6872 37.82C35.6445 38.6792 16.3437 45.7674 9.79243 47.9001C3.2412 50.025 0.00393504 48.0458 0.00393504 48.0458Z" fill="url(#paint1_linear_235_73)"/>
<path d="M40.2077 22.2168C40.2077 22.2168 36.142 26.3439 35.2905 28.185C34.439 30.0184 33.388 32.1203 33.388 32.1203C33.388 32.1203 32.7973 32.1203 32.4061 32.711C32.0149 33.3017 31.754 34.5444 31.754 34.5444C31.754 34.5444 30.9639 35.3959 30.5113 36.0557C30.051 36.7077 29.6598 37.7587 29.2686 38.6792C29.8592 40.7735 32.874 41.2337 32.874 41.2337C32.874 41.2337 35.2981 38.1499 35.628 37.7587C35.9579 37.3675 35.7047 36.0327 35.7047 36.0327L48.2779 22.8765L40.2077 22.2168Z" fill="#0F2B44"/>
<path d="M18.1758 29.4968C18.1758 29.4968 18.6361 40.6431 18.6361 40.973C18.6361 41.3028 18.9659 41.4332 18.9659 40.973C18.9659 40.5127 18.9659 29.8957 18.9659 29.8957L18.1758 29.4968Z" fill="#0A1E2D"/>
<path d="M34.241 9.95816C32.7297 10.4184 31.487 10.8787 29.2547 14.0239C26.5007 17.1691 26.2399 17.1691 25.7796 17.7598C25.3193 18.3505 25.258 18.9412 25.258 18.9412C25.258 18.9412 23.8848 20.3143 23.1637 21.4343C22.4426 22.5466 22.2432 23.2677 22.2432 23.2677L24.6059 26.1521C24.6059 26.1521 25.9177 25.431 27.6897 24.1883C29.4618 22.9456 29.7226 22.2245 29.7226 22.2245C29.7226 22.2245 30.0525 22.2245 31.6864 21.0431C33.3281 19.8617 34.7012 18.6803 34.7012 18.6803C34.7012 18.6803 38.767 21.5647 40.2092 22.2245C44.2749 22.3549 48.2717 22.8765 48.2717 22.8765C48.2717 22.8765 51.8771 24.779 53.9791 28.3154C54.961 28.0546 56.733 26.6738 57.3851 25.7609C58.0371 24.8403 57.9067 22.8765 57.9067 22.8765C57.9067 22.8765 58.4974 21.6338 58.6969 20.7823C58.8963 19.9308 58.6278 19.3401 56.0119 15.7346C53.396 12.1291 51.2941 10.2957 51.2941 10.2957C51.2941 10.2957 50.7725 9.05295 50.1128 8.20144C49.4607 7.34994 44.6048 7.15048 44.6048 7.15048L38.2454 9.77404L34.241 9.95816Z" fill="url(#paint2_linear_235_73)"/>
<path d="M44.3357 15.9878C44.9034 16.2409 48.2711 18.2201 48.2711 18.2201C48.2711 18.2201 52.3982 21.2349 53.6486 21.6261C54.2393 20.5752 54.9604 20.1839 55.482 19.9231C56.0037 19.6623 54.5615 20.7132 54.1703 22.0864C54.1012 23.0069 53.9708 23.4595 53.9708 23.4595C53.9708 23.4595 55.0218 26.0141 54.6919 26.6738C54.362 27.3335 51.0864 25.7532 51.0864 25.7532C51.0864 25.7532 52.5976 24.6409 53.0502 23.9812C53.5105 23.3291 51.8075 24.7713 49.7056 24.1806C47.6113 23.5899 48.2634 22.8689 48.2634 22.8689C48.2634 22.8689 50.5571 23.3905 52.659 22.4086C48.5319 20.5138 43.1544 15.4661 44.3357 15.9878Z" fill="url(#paint3_linear_235_73)"/>
<path d="M26.126 21.2426C26.1567 21.3039 26.1797 21.35 26.2104 21.396C26.4021 21.6875 26.3178 21.5571 26.126 21.2426Z" fill="#FFCD03"/>
<path d="M25.3578 19.8924C25.5956 20.368 25.9178 20.9127 26.1249 21.2425C25.7874 20.5291 25.6647 18.8798 26.9995 17.7291C28.4417 16.4864 30.0833 13.0113 32.9293 11.4387C33.9113 10.894 33.8422 10.5258 33.3282 10.2727C32.1776 10.7253 31.0269 11.5308 29.2625 14.0316C26.5085 17.1768 26.2477 17.1768 25.7874 17.7675C25.3271 18.3582 25.2658 18.9488 25.2658 18.9488C25.2658 18.9488 23.8926 20.322 23.1715 21.442C22.4504 22.5543 22.251 23.2754 22.251 23.2754C22.251 23.2754 24.046 20.6135 25.3578 19.8924Z" fill="#3E8BFF"/>
<path d="M32.928 15.5352C32.997 16.1258 33.5187 17.6294 33.4496 17.7675C33.3806 17.8979 29.9746 21.0431 29.5143 20.7823C29.054 20.5215 28.2025 18.8184 28.1411 19.2097C28.0798 19.6009 28.471 20.7823 28.471 21.1735C28.471 21.5647 28.3406 21.8256 27.0979 23.076C25.8551 24.3187 24.6737 24.6869 24.6737 24.6869C24.6737 24.6869 24.8272 25.2086 24.2979 25.7763L24.6124 26.1598C24.6124 26.1598 25.9242 25.4387 27.6962 24.196C29.4683 22.9532 29.7291 22.2321 29.7291 22.2321C29.7291 22.2321 30.0589 22.2321 31.6929 21.0508C33.3346 19.8694 34.7077 18.688 34.7077 18.688C34.7077 18.688 38.7735 21.5724 40.2157 22.2321C41.0518 22.2628 41.8803 22.3012 42.6705 22.3549C40.5379 20.1839 38.8348 21.442 36.4107 19.5472C33.9789 17.6294 32.8666 14.9445 32.928 15.5352Z" fill="url(#paint4_linear_235_73)"/>
<path d="M41.0678 11.0782C40.339 12.2596 40.4004 13.8322 39.8788 14.8755C39.3571 15.9187 40.9297 13.9549 41.9116 12.3823C42.8936 10.8097 44.0749 11.7303 46.0388 10.2881C48.0026 8.84587 48.6623 8.77682 49.4448 8.58504C49.184 7.99436 49.184 7.99436 44.9571 7.14285C41.0218 8.84587 41.0678 11.0782 41.0678 11.0782Z" fill="url(#paint5_linear_235_73)"/>
<path d="M22.2429 23.0836C22.2429 23.0836 25.4571 23.2064 24.7974 26.8118C23.6851 27.7938 23.0253 27.8628 23.0253 27.8628C23.0253 27.8628 22.1048 28.8447 21.6522 29.0442C21.1919 29.2436 20.8007 28.8447 20.8007 28.8447C20.8007 28.8447 19.9492 29.8957 19.2281 30.1565C18.507 30.4173 18.1771 29.8957 18.1771 29.8957C17.5864 30.2255 16.9344 29.5658 16.804 28.7833C16.6736 27.9932 16.3437 27.1417 17.8549 26.0984C19.3662 25.0551 20.0873 25.7685 20.0873 25.7685C20.0873 25.7685 21.0001 24.2727 22.2429 23.0836Z" fill="#193F68"/>
<path d="M39.2881 2.48639C39.2881 2.48639 43.093 2.87762 43.7451 3.27653C44.3971 3.66776 44.3971 4.38885 44.3971 4.38885C44.3971 4.38885 45.1873 4.97954 45.1182 6.55214C45.0492 8.12475 42.3642 8.64639 40.7226 11.6689C39.081 14.6837 36.8793 14.4152 35.5445 14.6223C34.2327 14.8217 33.9719 14.231 33.5807 13.51C33.1894 12.7889 33.4503 11.4771 33.1894 10.4261C32.9286 9.37516 39.2881 2.48639 39.2881 2.48639Z" fill="url(#paint6_linear_235_73)"/>
<path d="M32.8896 11.7072C34.2091 13.9241 35.6513 15.1055 37.8146 12.9422C40.4995 11.431 41.0672 8.76907 41.0672 8.76907L37.9373 10.1652L32.8896 11.7072Z" fill="url(#paint7_linear_235_73)"/>
<path d="M39.1516 11.0781C39.1516 11.0781 41.6524 8.06332 42.4349 7.14277C43.225 6.22223 43.0255 6.03044 43.1559 4.51921C43.225 4.05894 42.6343 5.50113 42.174 6.22223C41.7138 6.94332 40.9927 7.73346 40.9927 7.73346C40.9927 7.73346 42.3044 4.12798 42.4349 3.86716C42.5653 3.60633 40.8622 3.53729 39.6809 3.27647C38.4995 3.01565 39.1592 7.93291 39.1592 7.93291L39.1516 11.0781Z" fill="#BC5E11"/>
<path d="M40.2394 5.66232C41.2904 4.87218 40.3698 3.9593 40.8301 2.97739C39.7792 3.69848 39.7715 4.92588 39.7715 4.92588L40.2394 5.66232Z" fill="#0A1E2D"/>
<path d="M39.3884 4.74934C41.6821 5.93071 40.5008 3.37619 42.6641 2.65509C41.6821 3.57564 43.0553 4.74933 42.012 6.98166C42.6027 6.46002 42.6641 5.86933 42.6641 5.86933C42.9939 9.01454 41.0915 9.60523 39.1199 11.1165C37.1561 12.6277 36.5654 9.28303 36.5654 9.28303L39.3884 4.74934Z" fill="#0A1E2D"/>
<path d="M30.7033 7.40363C30.7033 7.40363 30.3735 7.33459 30.2431 7.07377C30.1127 6.81295 29.7828 4.38884 30.8951 2.48637C32.0075 0.583908 36.1499 -1.4413 38.8272 1.43541C42.3023 5.17131 39.3488 10.5488 39.2184 10.9401C39.088 11.3313 37.6612 12.3746 37.3236 12.3823C36.9861 12.3823 37.6842 11.9066 37.8299 11.2929C37.9757 10.6793 38.0064 9.04528 37.6918 8.22446C37.6612 6.71322 35.6743 5.76199 35.6743 5.76199L30.7033 7.40363Z" fill="url(#paint8_linear_235_73)"/>
<path d="M37.7859 4.97182C33.6587 4.18169 30.5059 7.0047 30.5059 7.0047L30.7513 7.38059L35.6839 5.76196C35.6839 5.76196 37.6631 6.71319 37.7015 8.22442C38.016 9.04524 37.9776 10.6792 37.8396 11.2929C37.7015 11.9066 36.9957 12.3822 37.3333 12.3822C37.4713 12.3285 39.0209 11.6304 38.8291 8.05566C38.5683 6.48305 37.9163 4.97182 37.7859 4.97182Z" fill="#175CA0"/>
<path d="M31.6876 6.81299H30.7133C30.7133 6.81299 31.2273 6.2223 31.818 5.70066C30.5062 2.81627 32.9303 0.982849 32.9303 0.982849C32.9303 0.982849 29.8848 2.01846 30.1303 6.48312C30.3758 10.9401 31.6876 6.81299 31.6876 6.81299Z" fill="#94DBFF"/>
<path d="M31.6855 9.8968C32.6675 11.8606 34.3705 13.2415 34.8998 13.4409C35.4214 13.6404 37.0631 13.3719 37.7228 11.6689C38.3749 9.96585 37.5924 7.86393 37.5924 7.86393L34.708 7.34229L31.6855 9.8968Z" fill="#EDBB79"/>
<path d="M36.3964 13.1954C36.9104 12.9269 37.4167 12.4513 37.7158 11.6689C38.3679 9.96585 37.5854 7.86393 37.5854 7.86393L34.7011 7.34229L31.7246 9.86612L32.0545 10.5565C32.1082 10.6409 32.1619 10.733 32.2232 10.8174C32.346 10.8097 32.7219 10.7943 33.2742 10.8174C33.9569 10.848 33.8189 9.86612 34.0183 10.0656C34.2178 10.265 34.54 10.9171 35.3915 10.8557C36.243 10.7867 37.2939 9.67434 37.2939 9.67434C37.2939 9.67434 38.1915 11.8069 36.3964 13.1954Z" fill="#D58E4F"/>
<path d="M30.5059 7.00475C30.5059 7.00475 30.8971 9.23708 31.0275 9.62831C31.1579 10.0195 31.879 10.219 32.5387 10.2804C33.1908 10.3494 33.2598 10.15 33.4593 9.62831C33.6587 9.10667 33.7201 9.03763 34.3108 9.42886C34.9015 9.82009 35.5535 10.2804 36.5431 9.35982C37.525 8.43927 38.1157 7.91763 37.9853 7.52639C37.8549 7.13516 37.1338 5.49352 37.0034 5.23269C36.8653 4.97187 32.2089 5.24037 30.5059 7.00475Z" fill="#0A1E2D"/>
<path d="M48.2717 22.8765C48.2717 22.8765 41.3215 22.8074 40.6695 22.8765C40.0174 22.9455 39.6876 23.3368 39.6876 23.3368C39.6876 23.3368 38.7056 23.3368 37.5933 24.0579C36.481 24.7789 36.0821 25.8913 35.7599 29.957C35.4377 34.0228 35.8289 37.0376 35.7599 37.2984C38.7133 38.4107 42.2498 37.0989 42.5106 37.0376C42.7714 36.9762 41.9199 34.8053 41.9199 34.8053C41.9199 34.8053 42.2498 34.2836 42.1807 33.8847C42.1117 33.4935 41.59 32.4425 41.59 32.4425C41.59 32.4425 41.9813 32.1817 42.2421 30.2792C48.0799 31.3915 50.9643 31.6524 53.9791 28.3154C54.2399 27.9855 52.5369 25.2315 48.2717 22.8765Z" fill="#193F68"/>
<path d="M35.2905 28.185C34.439 30.0184 33.388 32.1203 33.388 32.1203C33.388 32.1203 32.7973 32.1203 32.4061 32.711C32.0149 33.3017 31.754 34.5444 31.754 34.5444C31.754 34.5444 30.9639 35.3959 30.5113 36.0556C30.051 36.7077 29.6598 37.7587 29.2686 38.6792C29.4373 39.2699 29.7902 39.7302 30.2198 40.083C30.2198 40.083 29.9206 39.5921 30.051 39.0014C30.1814 38.4107 30.5113 37.6896 30.9716 36.7691C31.4318 35.8485 32.0225 35.3959 32.0225 35.3959C32.0225 35.3959 31.9535 36.4469 32.8127 36.9685C33.0735 37.2293 32.3524 36.5083 32.5518 35.0047C32.7513 33.4935 32.9431 33.1713 33.7332 33.0409C33.6028 33.7619 34.1244 34.483 34.1244 34.483C34.1244 34.483 33.994 32.78 34.4543 31.9285C34.9146 31.077 35.5666 28.8447 36.2264 28.4535C36.3951 28.3537 36.4488 28.1083 36.4412 27.7937C43.8055 25.5998 48.3853 25.0167 48.2932 22.8841C46.7513 22.2628 40.2307 22.2321 40.2307 22.2321C40.2307 22.2321 36.142 26.3515 35.2905 28.185Z" fill="#193F68"/>
<path d="M52.4665 34.5444C51.3081 35.0431 20.7996 45.8211 15.0922 48.1839C9.38484 50.5466 5.51854 50.7384 4.40621 50.5466C3.29388 50.3548 4.47525 52.5105 8.93223 52.1192C13.3892 51.728 51.8758 35.4036 52.4665 35.1351C53.0572 34.8743 52.9268 34.345 52.4665 34.5444Z" fill="url(#paint9_linear_235_73)"/>
<path d="M49.2689 34.5598C48.0875 34.9894 17.0344 44.0875 11.2043 46.1357C5.37412 48.1839 1.50782 48.1686 0.40316 47.9078C-0.701497 47.6469 0.364804 49.8716 4.83713 49.7259C9.30946 49.5801 48.6322 35.3806 49.2382 35.1505C49.8366 34.9127 49.7369 34.3834 49.2689 34.5598Z" fill="url(#paint10_linear_235_73)"/>
<path d="M19.0282 28.3154C18.2765 28.7143 17.0644 28.0546 18.1767 27.134C19.2891 26.2212 20.1406 27.7247 19.0282 28.3154Z" fill="#0A1E2D"/>
<path d="M38.2749 23.682C38.0602 23.774 37.8223 23.8968 37.5845 24.0502C36.4722 24.7713 36.0733 25.8836 35.7511 29.9494C35.4289 34.0151 35.8201 37.0299 35.7511 37.2907C36.3878 37.5286 37.0476 37.659 37.6919 37.7127C37.2777 37.4058 36.6026 36.8535 36.6026 36.4392C36.6026 35.8486 36.3418 31.522 36.6026 29.4891C36.8634 27.4639 36.6717 24.6869 38.2749 23.682Z" fill="#3677B2"/>
<path d="M53.9777 28.3154C54.1388 28.1159 53.5558 26.9959 52.0983 25.6151C51.661 26.1751 50.3339 27.4562 47.5569 27.1954C44.0128 26.8655 41.5887 25.0321 42.2484 25.9526C42.9005 26.8732 45.7235 29.0979 44.0205 28.5762C42.3175 28.0546 40.0238 26.6124 39.3027 26.0217C38.5816 25.431 39.3027 27.6633 40.2232 28.6452C41.1438 29.6272 42.2561 30.2869 42.2561 30.2869C48.0709 31.3992 50.9629 31.66 53.9777 28.3154Z" fill="#0F2B44"/>
<path d="M37.7853 13.5022C37.2023 13.5943 37.0642 14.208 37.7853 14.277C38.5064 14.3537 38.6368 13.3641 37.7853 13.5022Z" fill="#FFAC3E"/>
<path d="M34.2423 13.5023C33.8358 13.3335 33.6517 14.2157 34.2423 14.4151C34.833 14.6146 35.0325 13.8244 34.2423 13.5023Z" fill="#FFAC3E"/>
<path d="M37.1862 19.2864C36.8103 17.8979 36.6952 17.7214 36.5188 17.4529C36.4267 17.3072 36.3193 17.1461 36.1276 16.7012C35.744 15.7806 35.7593 15.1669 35.7977 14.3154C35.8054 14.0469 35.8207 13.7784 35.8207 13.4639H35.4295C35.4295 13.7707 35.4218 14.0392 35.4065 14.3001C35.3758 15.1669 35.3528 15.8573 35.767 16.8546C35.9665 17.3379 36.0892 17.522 36.1889 17.6677C36.3347 17.8979 36.4421 18.059 36.8103 19.3861C36.91 19.7466 37.0174 20.0688 37.1402 20.3527C37.3473 20.4908 37.5621 20.6365 37.7769 20.7746C37.5621 20.3987 37.355 19.9077 37.1862 19.2864Z" fill="#FFAC3E"/>
<path d="M24.6668 24.6869C24.6668 24.6869 24.8662 25.3696 24.0147 26.0294C23.1632 26.6814 21.5906 27.9932 21.5216 27.671C21.4525 27.3411 20.8005 26.6891 20.8005 26.6891C20.8005 26.6891 20.8695 27.0803 20.8005 27.671C20.7314 28.2617 20.2788 28.6529 19.5577 29.5044C18.8366 30.3559 18.1846 29.8957 18.1846 29.8957C18.1846 29.8957 18.5144 30.4173 19.2355 30.1565C19.9566 29.8957 20.8081 28.8447 20.8081 28.8447C20.8081 28.8447 21.1994 29.2359 21.6596 29.0441C22.1199 28.8447 23.0328 27.8628 23.0328 27.8628C23.0328 27.8628 23.6848 27.7937 24.8048 26.8118C24.9659 25.8913 24.8816 25.2009 24.6668 24.6869Z" fill="#0F2B44"/>
<path d="M58.2363 30.3483C58.2363 30.3483 83.0221 26.8041 83.4133 26.7428C83.8045 26.6814 83.8045 27.0726 83.4133 27.134C83.0221 27.1954 58.2363 31.1998 58.2363 31.1998V30.3483Z" fill="#0A1E2D"/>
<path d="M53.9795 23.4672C53.9795 23.4672 56.4266 22.2858 57.9225 23.4672C58.0989 26.6814 57.9148 27.6633 57.9148 27.6633C57.9148 27.6633 58.6436 28.9137 58.7663 29.7576C59.0271 31.5296 58.306 31.9899 57.9148 32.3811C57.5236 32.7724 57.0633 32.5806 57.0633 32.5806C57.0633 32.5806 56.603 32.711 56.1427 32.6496C55.4907 32.8491 54.9614 32.6496 54.9614 32.6496C54.9614 32.6496 54.5011 33.4398 54.1712 33.3017C53.8414 33.1636 53.1203 32.6496 53.0589 31.2688C52.9899 29.8957 53.128 29.0441 53.5499 27.2721C53.9718 25.5 53.9795 23.4672 53.9795 23.4672Z" fill="#193F68"/>
<path d="M54.6994 31.1385C54.8375 31.9133 53.8479 32.4502 53.6484 31.5297C53.449 30.6091 54.4386 29.6272 54.6994 31.1385Z" fill="#0A1E2D"/>
<path d="M37.6159 37.0069C37.6159 37.0069 36.0433 37.2064 35.7825 37.2677C35.5217 37.3368 31.3562 40.8425 30.9649 41.2338C30.5737 41.625 29.7836 42.2157 29.4537 42.4151C29.1238 42.6146 29.7145 44.1182 31.617 43.8573C33.5195 43.5965 42.8937 39.4003 43.0241 39.0705C43.1545 38.7406 43.0241 36.7768 42.9551 36.3165C42.886 35.8562 42.2877 35.8562 42.2877 35.8562L37.6159 37.0069Z" fill="#0A1E2D"/>
<path d="M51.2857 10.288C51.2857 10.288 50.764 9.04526 50.1043 8.19375C49.575 7.50334 46.284 7.24251 45.0566 7.1658C45.678 7.31923 49.1147 8.19375 49.4139 8.55429C49.7438 8.94553 50.5262 12.62 50.5262 13.4716C50.5262 14.3231 51.1169 11.5077 51.1169 11.5077C51.1169 11.5077 57.346 19.3784 57.7372 20.3603C58.1284 21.3422 57.7372 22.8535 57.7372 22.8535C57.7372 22.8535 57.7986 22.8765 57.8983 22.8995C57.8983 22.8918 57.8983 22.8842 57.8983 22.8842C57.8983 22.8842 58.489 21.6414 58.6884 20.7899C58.8879 19.9384 58.6194 19.3477 56.0035 15.7422C53.3876 12.1368 51.2857 10.288 51.2857 10.288Z" fill="#1C35B7"/>
<path d="M31.1484 7.32688C31.1484 7.32688 31.4553 8.94551 31.5857 9.20634C31.7161 9.46716 32.5676 9.72798 32.698 9.59757C32.8284 9.46716 33.2734 8.56196 33.6799 8.48524C34.332 8.35483 35.0531 9.20634 35.6438 9.1373C36.2345 9.06826 37.155 7.82552 37.2164 7.69511C37.2854 7.5647 36.6257 5.92305 36.4953 5.86168C36.3725 5.79264 33.6186 5.79264 31.1484 7.32688Z" fill="#29ABE2"/>
<path d="M33.3964 6.3143L32.0156 9.50553C32.2995 9.6206 32.6216 9.6743 32.6984 9.59759C32.8288 9.46718 33.2584 8.59266 33.6649 8.48526L34.7466 5.98444C34.3323 6.06115 33.8797 6.16088 33.3964 6.3143Z" fill="white"/>
<path d="M35.092 5.93074L33.9873 8.48526C34.11 8.50828 34.2328 8.5543 34.3479 8.608L35.5292 5.87704C35.3988 5.89239 35.2531 5.90773 35.092 5.93074Z" fill="white"/>
<path d="M29.224 38.5105C29.224 38.5105 24.3144 42.0392 23.8542 42.1773C23.3939 42.3154 24.3068 43.3587 25.2887 43.0365C26.0788 42.7757 32.4153 40.8195 33.4739 40.4513C34.5325 40.0831 33.4739 39.0781 33.4739 39.0781C33.4739 39.0781 30.8657 39.2316 29.224 38.5105Z" fill="#0A1E2D"/>
<defs>
<linearGradient id="paint0_linear_235_73" x1="4.01486" y1="43.8234" x2="53.0643" y2="43.8234" gradientUnits="userSpaceOnUse">
<stop stop-color="#B2360B"/>
<stop offset="1" stop-color="#DB490F"/>
</linearGradient>
<linearGradient id="paint1_linear_235_73" x1="0.00470984" y1="42.6021" x2="49.8457" y2="42.6021" gradientUnits="userSpaceOnUse">
<stop stop-color="#B2360B"/>
<stop offset="1" stop-color="#DB490F"/>
</linearGradient>
<linearGradient id="paint2_linear_235_73" x1="18.2498" y1="12.1422" x2="64.1453" y2="23.9439" gradientUnits="userSpaceOnUse">
<stop stop-color="#0A13E8"/>
<stop offset="1" stop-color="#0FB6DB"/>
</linearGradient>
<linearGradient id="paint3_linear_235_73" x1="59.8053" y1="28.204" x2="45.2499" y2="16.14" gradientUnits="userSpaceOnUse">
<stop stop-color="#0B30B2"/>
<stop offset="1" stop-color="#0F23DB"/>
</linearGradient>
<linearGradient id="paint4_linear_235_73" x1="27.3637" y1="20.6789" x2="39.8532" y2="21.7607" gradientUnits="userSpaceOnUse">
<stop stop-color="#4575D3"/>
<stop offset="1" stop-color="#0FB6DB"/>
</linearGradient>
<linearGradient id="paint5_linear_235_73" x1="53.7946" y1="6.8432" x2="44.9438" y2="10.1868" gradientUnits="userSpaceOnUse">
<stop stop-color="#0ACDE8"/>
<stop offset="1" stop-color="#0F3CDB"/>
</linearGradient>
<linearGradient id="paint6_linear_235_73" x1="32.6997" y1="14.4885" x2="41.6166" y2="5.70282" gradientUnits="userSpaceOnUse">
<stop stop-color="#E88D0A"/>
<stop offset="1" stop-color="#FFAC3E"/>
</linearGradient>
<linearGradient id="paint7_linear_235_73" x1="32.891" y1="11.4261" x2="41.0691" y2="11.4261" gradientUnits="userSpaceOnUse">
<stop stop-color="#BC5E11"/>
<stop offset="1" stop-color="#DB490F"/>
</linearGradient>
<linearGradient id="paint8_linear_235_73" x1="30.5915" y1="2.12484" x2="39.049" y2="7.43533" gradientUnits="userSpaceOnUse">
<stop stop-color="#39B4FF"/>
<stop offset="1" stop-color="#2C88DB"/>
</linearGradient>
<linearGradient id="paint9_linear_235_73" x1="42.3607" y1="36.8368" x2="12.5942" y2="49.5564" gradientUnits="userSpaceOnUse">
<stop stop-color="#E88D0A"/>
<stop offset="1" stop-color="#DB490F"/>
</linearGradient>
<linearGradient id="paint10_linear_235_73" x1="40.5639" y1="37.7376" x2="0.96266" y2="49.4082" gradientUnits="userSpaceOnUse">
<stop stop-color="#E88D0A"/>
<stop offset="1" stop-color="#DB490F"/>
</linearGradient>
</defs>
</svg>
